<?xml version="1.0" standalone="no"?>
<!DOCTYPE svg PUBLIC "-//W3C//DTD SVG 20010904//EN"
 "http://www.w3.org/TR/2001/REC-SVG-20010904/DTD/svg10.dtd">
<svg version="1.0" xmlns="http://www.w3.org/2000/svg"
 width="79.384613" height="70.892311" viewBox="0 15 214.99999 191.82625"
 preserveAspectRatio="xMidYMid meet">
<metadata>
Created by potrace 1.11, written by Peter Selinger 2001-2013
</metadata>
<g transform="matrix(0.1,0,0,-0.1,-20,258.89583)"
fill="#ffffff" stroke="none">
<path d="M205 2432 c-3 -3 -5 -434 -5 -959 l0 -953 290 0 290 0 0 515 c0 297
4 515 9 515 5 0 353 -229 772 -508 420 -280 770 -512 777 -516 9 -6 12 188 12
953 l0 961 -285 0 -285 0 -2 -515 -3 -515 -170 111 c-93 62 -242 159 -330 217
-88 57 -259 169 -380 249 -600 395 -685 450 -690 445z"/>
</g>
</svg>
