<?xml version="1.0" standalone="no"?>
<!DOCTYPE svg PUBLIC "-//W3C//DTD SVG 20010904//EN"
 "http://www.w3.org/TR/2001/REC-SVG-20010904/DTD/svg10.dtd">
<svg version="1.0" xmlns="http://www.w3.org/2000/svg"
 width="95.368553" height="84.553848" viewBox="0 15 258.28983 228.79277"
 preserveAspectRatio="xMidYMid meet">
<metadata>
Created by potrace 1.11, written by Peter Selinger 2001-2013
</metadata>
<g transform="matrix(0.1,0,0,-0.1,-1,258.89583)"
fill="#ffffff" stroke="none">
<path d="M205 2432 c-3 -3 -5 -434 -5 -959 l0 -953 290 0 290 0 0 515 c0 297
4 515 9 515 5 0 353 -229 772 -508 420 -280 770 -512 777 -516 9 -6 12 188 12
953 l0 961 -285 0 -285 0 -2 -515 -3 -515 -170 111 c-93 62 -242 159 -330 217
-88 57 -259 169 -380 249 -600 395 -685 450 -690 445z"/>
<path d="M10 270 l0 -120 136 0 c119 0 135 2 124 15 -8 10 -37 15 -98 17 l-87
3 -3 33 -3 32 90 0 c84 0 91 1 91 20 0 19 -7 20 -91 20 l-90 0 3 33 3 32 87 3
c61 2 90 7 98 17 11 13 -5 15 -124 15 l-136 0 0 -120z"/>
<path d="M310 270 l0 -120 40 0 40 0 0 40 0 40 95 0 95 0 0 80 0 80 -135 0
-135 0 0 -120z m195 45 l0 -40 -57 -3 -58 -3 0 46 0 46 58 -3 57 -3 0 -40z"/>
<path d="M620 270 l0 -120 40 0 40 0 0 50 0 50 60 0 60 0 0 -50 0 -50 40 0 40
0 0 120 0 120 -40 0 -40 0 0 -50 0 -50 -60 0 -60 0 0 50 0 50 -40 0 -40 0 0
-120z"/>
<path d="M940 270 l0 -120 35 0 35 0 0 50 0 50 65 0 65 0 0 -50 0 -50 35 0 35
0 0 120 0 120 -135 0 -135 0 0 -120z m198 53 l3 -33 -65 0 c-66 0 -66 0 -66
28 0 40 6 43 70 40 54 -3 55 -4 58 -35z"/>
<path d="M1250 376 c6 -8 33 -16 58 -18 l47 -3 3 -102 3 -103 34 0 35 0 0 105
0 105 44 0 c26 0 48 6 56 15 11 13 -6 15 -140 15 -132 0 -151 -2 -140 -14z"/>
<path d="M1560 270 l0 -120 35 0 34 0 3 103 3 102 63 3 62 3 0 -30 c0 -30 -1
-30 -61 -33 l-60 -3 68 -73 c65 -71 70 -74 108 -70 l40 3 -42 46 c-24 25 -43
49 -43 52 0 3 15 7 33 9 17 2 31 6 30 11 -2 4 -3 32 -3 62 l0 55 -135 0 -135
0 0 -120z"/>
<path d="M1890 270 l0 -120 35 0 35 0 0 120 0 120 -35 0 -35 0 0 -120z"/>
<path d="M2010 293 c0 -132 4 -143 46 -143 l34 0 0 60 c0 33 2 60 6 60 3 0 42
-24 87 -53 45 -30 88 -57 95 -61 9 -6 12 20 12 113 l0 121 -40 0 -39 0 -3 -60
-3 -61 -92 61 c-51 33 -95 60 -98 60 -3 0 -5 -44 -5 -97z"/>
<path d="M2330 270 l0 -120 136 0 c119 0 135 2 124 15 -8 10 -37 15 -98 17
l-87 3 -3 32 -3 32 93 3 c75 2 93 6 93 18 0 12 -18 16 -93 18 l-93 3 3 32 3
32 87 3 c61 2 90 7 98 17 11 13 -5 15 -124 15 l-136 0 0 -120z"/>
</g>
</svg>
